<mxfile host="app.diagrams.net" modified="2024-02-27T02:42:44.128Z" agent="Mozilla/5.0 (Windows NT 10.0; Win64; x64) AppleWebKit/537.36 (KHTML, like Gecko) Chrome/121.0.0.0 Safari/537.36" etag="N9CUbYkyTW3AHusHbeN4" version="23.1.7" type="github">
  <diagram name="Page-1" id="7LmNzzjX6O0NqZECx5Ha">
    <mxGraphModel dx="2163" dy="772" grid="1" gridSize="10" guides="1" tooltips="1" connect="1" arrows="1" fold="1" page="1" pageScale="1" pageWidth="827" pageHeight="1169" math="0" shadow="0">
      <root>
        <mxCell id="0" />
        <mxCell id="1" parent="0" />
        <mxCell id="vOsG3U2r3sjx957_ffcO-3" value="SYSTEM OF LIBRARY MANAGEMENT" style="shape=rect;html=1;verticalAlign=top;fontStyle=1;whiteSpace=wrap;align=center;" parent="1" vertex="1">
          <mxGeometry x="80" y="30" width="860" height="1070" as="geometry" />
        </mxCell>
        <mxCell id="vOsG3U2r3sjx957_ffcO-4" value="Đăng nhập" style="ellipse;whiteSpace=wrap;html=1;fillColor=#dae8fc;strokeColor=#6c8ebf;" parent="1" vertex="1">
          <mxGeometry x="430" y="60" width="140" height="70" as="geometry" />
        </mxCell>
        <mxCell id="vOsG3U2r3sjx957_ffcO-6" value="Tra cứu sách" style="ellipse;whiteSpace=wrap;html=1;fillColor=#dae8fc;strokeColor=#6c8ebf;" parent="1" vertex="1">
          <mxGeometry x="390" y="370" width="140" height="70" as="geometry" />
        </mxCell>
        <mxCell id="vOsG3U2r3sjx957_ffcO-7" value="Đăng ký tài khoản" style="ellipse;whiteSpace=wrap;html=1;fillColor=#dae8fc;strokeColor=#6c8ebf;" parent="1" vertex="1">
          <mxGeometry x="200" y="300" width="140" height="70" as="geometry" />
        </mxCell>
        <mxCell id="vOsG3U2r3sjx957_ffcO-8" value="Xác thực ID và password" style="ellipse;whiteSpace=wrap;html=1;" parent="1" vertex="1">
          <mxGeometry x="190" y="60" width="140" height="70" as="geometry" />
        </mxCell>
        <mxCell id="vOsG3U2r3sjx957_ffcO-9" value="Điền form đăng ký" style="ellipse;whiteSpace=wrap;html=1;" parent="1" vertex="1">
          <mxGeometry x="380" y="160" width="140" height="70" as="geometry" />
        </mxCell>
        <mxCell id="vOsG3U2r3sjx957_ffcO-10" value="Nhận ID" style="ellipse;whiteSpace=wrap;html=1;" parent="1" vertex="1">
          <mxGeometry x="370" y="240" width="140" height="70" as="geometry" />
        </mxCell>
        <mxCell id="vOsG3U2r3sjx957_ffcO-11" value="Đăng kí mượn sách" style="ellipse;whiteSpace=wrap;html=1;fillColor=#dae8fc;strokeColor=#6c8ebf;" parent="1" vertex="1">
          <mxGeometry x="160" y="440" width="140" height="70" as="geometry" />
        </mxCell>
        <mxCell id="vOsG3U2r3sjx957_ffcO-12" value="Trả tiền phạt quá hạn" style="ellipse;whiteSpace=wrap;html=1;" parent="1" vertex="1">
          <mxGeometry x="134" y="750" width="140" height="70" as="geometry" />
        </mxCell>
        <mxCell id="vOsG3U2r3sjx957_ffcO-13" value="Theo dõi tình trạng mượn trả sách" style="ellipse;whiteSpace=wrap;html=1;fillColor=#dae8fc;strokeColor=#6c8ebf;" parent="1" vertex="1">
          <mxGeometry x="110" y="600" width="140" height="70" as="geometry" />
        </mxCell>
        <mxCell id="vOsG3U2r3sjx957_ffcO-14" value="Theo dõi số lượng sách đã mượn" style="ellipse;whiteSpace=wrap;html=1;" parent="1" vertex="1">
          <mxGeometry x="274" y="710" width="140" height="70" as="geometry" />
        </mxCell>
        <mxCell id="vOsG3U2r3sjx957_ffcO-16" value="Theo dõi số ngày mượn còn lại của từng quyển sách đã mượn" style="ellipse;whiteSpace=wrap;html=1;" parent="1" vertex="1">
          <mxGeometry x="330" y="630" width="140" height="70" as="geometry" />
        </mxCell>
        <mxCell id="vOsG3U2r3sjx957_ffcO-17" value="&amp;lt;&amp;lt;include&amp;gt;&amp;gt;" style="edgeStyle=none;html=1;endArrow=open;verticalAlign=bottom;dashed=1;labelBackgroundColor=none;rounded=0;entryX=1;entryY=0.5;entryDx=0;entryDy=0;exitX=0;exitY=0.5;exitDx=0;exitDy=0;" parent="1" source="vOsG3U2r3sjx957_ffcO-4" target="vOsG3U2r3sjx957_ffcO-8" edge="1">
          <mxGeometry width="160" relative="1" as="geometry">
            <mxPoint x="370" y="130" as="sourcePoint" />
            <mxPoint x="380" y="-100" as="targetPoint" />
          </mxGeometry>
        </mxCell>
        <mxCell id="vOsG3U2r3sjx957_ffcO-18" value="&amp;lt;&amp;lt;include&amp;gt;&amp;gt;" style="edgeStyle=none;html=1;endArrow=open;verticalAlign=bottom;dashed=1;labelBackgroundColor=none;rounded=0;exitX=0.5;exitY=0;exitDx=0;exitDy=0;entryX=0;entryY=0.5;entryDx=0;entryDy=0;" parent="1" source="vOsG3U2r3sjx957_ffcO-7" target="vOsG3U2r3sjx957_ffcO-9" edge="1">
          <mxGeometry width="160" relative="1" as="geometry">
            <mxPoint x="290" y="310" as="sourcePoint" />
            <mxPoint x="450" y="310" as="targetPoint" />
          </mxGeometry>
        </mxCell>
        <mxCell id="vOsG3U2r3sjx957_ffcO-19" value="&amp;lt;&amp;lt;include&amp;gt;&amp;gt;" style="edgeStyle=none;html=1;endArrow=open;verticalAlign=bottom;dashed=1;labelBackgroundColor=none;rounded=0;exitX=1;exitY=0;exitDx=0;exitDy=0;entryX=0;entryY=0.5;entryDx=0;entryDy=0;" parent="1" source="vOsG3U2r3sjx957_ffcO-7" target="vOsG3U2r3sjx957_ffcO-10" edge="1">
          <mxGeometry width="160" relative="1" as="geometry">
            <mxPoint x="290" y="310" as="sourcePoint" />
            <mxPoint x="450" y="310" as="targetPoint" />
          </mxGeometry>
        </mxCell>
        <mxCell id="vOsG3U2r3sjx957_ffcO-20" value="Nhập thông tin sách" style="ellipse;whiteSpace=wrap;html=1;" parent="1" vertex="1">
          <mxGeometry x="370" y="490" width="140" height="70" as="geometry" />
        </mxCell>
        <mxCell id="vOsG3U2r3sjx957_ffcO-21" value="&amp;lt;&amp;lt;include&amp;gt;&amp;gt;" style="edgeStyle=none;html=1;endArrow=open;verticalAlign=bottom;dashed=1;labelBackgroundColor=none;rounded=0;exitX=0.5;exitY=1;exitDx=0;exitDy=0;entryX=0.5;entryY=0;entryDx=0;entryDy=0;" parent="1" source="vOsG3U2r3sjx957_ffcO-6" target="vOsG3U2r3sjx957_ffcO-20" edge="1">
          <mxGeometry width="160" relative="1" as="geometry">
            <mxPoint x="270" y="480" as="sourcePoint" />
            <mxPoint x="430" y="480" as="targetPoint" />
          </mxGeometry>
        </mxCell>
        <mxCell id="vOsG3U2r3sjx957_ffcO-22" value="&amp;lt;&amp;lt;include&amp;gt;&amp;gt;" style="edgeStyle=none;html=1;endArrow=open;verticalAlign=bottom;dashed=1;labelBackgroundColor=none;rounded=0;exitX=0.5;exitY=1;exitDx=0;exitDy=0;entryX=0;entryY=0;entryDx=0;entryDy=0;" parent="1" source="vOsG3U2r3sjx957_ffcO-11" target="vOsG3U2r3sjx957_ffcO-23" edge="1">
          <mxGeometry width="160" relative="1" as="geometry">
            <mxPoint x="270" y="480" as="sourcePoint" />
            <mxPoint x="430" y="480" as="targetPoint" />
          </mxGeometry>
        </mxCell>
        <mxCell id="vOsG3U2r3sjx957_ffcO-23" value="Chọn ngày tới lấy sách" style="ellipse;whiteSpace=wrap;html=1;" parent="1" vertex="1">
          <mxGeometry x="240" y="530" width="140" height="70" as="geometry" />
        </mxCell>
        <mxCell id="vOsG3U2r3sjx957_ffcO-24" value="&amp;lt;&amp;lt;include&amp;gt;&amp;gt;" style="edgeStyle=none;html=1;endArrow=open;verticalAlign=bottom;dashed=1;labelBackgroundColor=none;rounded=0;exitX=1;exitY=0.5;exitDx=0;exitDy=0;entryX=0;entryY=0.5;entryDx=0;entryDy=0;" parent="1" source="vOsG3U2r3sjx957_ffcO-11" target="vOsG3U2r3sjx957_ffcO-20" edge="1">
          <mxGeometry width="160" relative="1" as="geometry">
            <mxPoint x="270" y="580" as="sourcePoint" />
            <mxPoint x="340" y="530" as="targetPoint" />
          </mxGeometry>
        </mxCell>
        <mxCell id="vOsG3U2r3sjx957_ffcO-25" value="&amp;lt;&amp;lt;extend&amp;gt;&amp;gt;" style="edgeStyle=none;html=1;startArrow=open;endArrow=none;startSize=12;verticalAlign=bottom;dashed=1;labelBackgroundColor=none;rounded=0;exitX=1;exitY=0.5;exitDx=0;exitDy=0;entryX=0;entryY=0.5;entryDx=0;entryDy=0;" parent="1" source="vOsG3U2r3sjx957_ffcO-13" target="vOsG3U2r3sjx957_ffcO-16" edge="1">
          <mxGeometry width="160" relative="1" as="geometry">
            <mxPoint x="260" y="790" as="sourcePoint" />
            <mxPoint x="410" y="725" as="targetPoint" />
          </mxGeometry>
        </mxCell>
        <mxCell id="vOsG3U2r3sjx957_ffcO-26" value="&amp;lt;&amp;lt;extend&amp;gt;&amp;gt;" style="edgeStyle=none;html=1;startArrow=open;endArrow=none;startSize=12;verticalAlign=bottom;dashed=1;labelBackgroundColor=none;rounded=0;exitX=1;exitY=1;exitDx=0;exitDy=0;entryX=0;entryY=0;entryDx=0;entryDy=0;" parent="1" source="vOsG3U2r3sjx957_ffcO-13" target="vOsG3U2r3sjx957_ffcO-14" edge="1">
          <mxGeometry width="160" relative="1" as="geometry">
            <mxPoint x="259" y="765" as="sourcePoint" />
            <mxPoint x="330" y="760" as="targetPoint" />
          </mxGeometry>
        </mxCell>
        <mxCell id="vOsG3U2r3sjx957_ffcO-27" value="&amp;lt;&amp;lt;extend&amp;gt;&amp;gt;" style="edgeStyle=none;html=1;startArrow=open;endArrow=none;startSize=12;verticalAlign=bottom;dashed=1;labelBackgroundColor=none;rounded=0;exitX=0.5;exitY=1;exitDx=0;exitDy=0;entryX=0.5;entryY=0;entryDx=0;entryDy=0;" parent="1" source="vOsG3U2r3sjx957_ffcO-13" target="vOsG3U2r3sjx957_ffcO-12" edge="1">
          <mxGeometry width="160" relative="1" as="geometry">
            <mxPoint x="269" y="775" as="sourcePoint" />
            <mxPoint x="340" y="770" as="targetPoint" />
          </mxGeometry>
        </mxCell>
        <mxCell id="vOsG3U2r3sjx957_ffcO-28" value="" style="edgeStyle=none;html=1;endArrow=none;verticalAlign=bottom;rounded=0;exitX=0.5;exitY=0.5;exitDx=0;exitDy=0;exitPerimeter=0;entryX=0;entryY=1;entryDx=0;entryDy=0;" parent="1" source="vOsG3U2r3sjx957_ffcO-1" target="vOsG3U2r3sjx957_ffcO-4" edge="1">
          <mxGeometry width="160" relative="1" as="geometry">
            <mxPoint x="50" y="180" as="sourcePoint" />
            <mxPoint x="210" y="180" as="targetPoint" />
          </mxGeometry>
        </mxCell>
        <mxCell id="vOsG3U2r3sjx957_ffcO-30" value="" style="edgeStyle=none;html=1;endArrow=none;verticalAlign=bottom;rounded=0;exitX=0.5;exitY=0.5;exitDx=0;exitDy=0;exitPerimeter=0;entryX=0;entryY=0.5;entryDx=0;entryDy=0;" parent="1" source="vOsG3U2r3sjx957_ffcO-1" target="vOsG3U2r3sjx957_ffcO-7" edge="1">
          <mxGeometry width="160" relative="1" as="geometry">
            <mxPoint x="10" y="280" as="sourcePoint" />
            <mxPoint x="170" y="280" as="targetPoint" />
          </mxGeometry>
        </mxCell>
        <mxCell id="vOsG3U2r3sjx957_ffcO-32" value="" style="edgeStyle=none;html=1;endArrow=none;verticalAlign=bottom;rounded=0;exitX=0.5;exitY=0.5;exitDx=0;exitDy=0;exitPerimeter=0;entryX=0;entryY=0.5;entryDx=0;entryDy=0;" parent="1" source="vOsG3U2r3sjx957_ffcO-1" target="vOsG3U2r3sjx957_ffcO-6" edge="1">
          <mxGeometry width="160" relative="1" as="geometry">
            <mxPoint x="85" y="90" as="sourcePoint" />
            <mxPoint x="200" y="202" as="targetPoint" />
          </mxGeometry>
        </mxCell>
        <mxCell id="vOsG3U2r3sjx957_ffcO-33" value="" style="edgeStyle=none;html=1;endArrow=none;verticalAlign=bottom;rounded=0;exitX=0.5;exitY=0.5;exitDx=0;exitDy=0;exitPerimeter=0;entryX=0;entryY=0.5;entryDx=0;entryDy=0;" parent="1" source="vOsG3U2r3sjx957_ffcO-1" target="vOsG3U2r3sjx957_ffcO-11" edge="1">
          <mxGeometry width="160" relative="1" as="geometry">
            <mxPoint x="95" y="100" as="sourcePoint" />
            <mxPoint x="210" y="212" as="targetPoint" />
          </mxGeometry>
        </mxCell>
        <mxCell id="vOsG3U2r3sjx957_ffcO-34" value="" style="edgeStyle=none;html=1;endArrow=none;verticalAlign=bottom;rounded=0;exitX=0.5;exitY=0.5;exitDx=0;exitDy=0;exitPerimeter=0;entryX=0;entryY=0.5;entryDx=0;entryDy=0;" parent="1" source="vOsG3U2r3sjx957_ffcO-1" target="vOsG3U2r3sjx957_ffcO-13" edge="1">
          <mxGeometry width="160" relative="1" as="geometry">
            <mxPoint x="100" y="120" as="sourcePoint" />
            <mxPoint x="220" y="435" as="targetPoint" />
          </mxGeometry>
        </mxCell>
        <mxCell id="vOsG3U2r3sjx957_ffcO-1" value="ĐỌC GIẢ" style="shape=umlActor;verticalLabelPosition=bottom;verticalAlign=top;html=1;outlineConnect=0;" parent="1" vertex="1">
          <mxGeometry x="10" y="390" width="30" height="60" as="geometry" />
        </mxCell>
        <mxCell id="vOsG3U2r3sjx957_ffcO-36" value="THỦ THƯ" style="shape=umlActor;html=1;verticalLabelPosition=bottom;verticalAlign=top;align=center;" parent="1" vertex="1">
          <mxGeometry x="1010" y="340" width="30" height="60" as="geometry" />
        </mxCell>
        <mxCell id="vOsG3U2r3sjx957_ffcO-37" value="" style="edgeStyle=none;html=1;endArrow=none;verticalAlign=bottom;rounded=0;entryX=1;entryY=1;entryDx=0;entryDy=0;exitX=0.5;exitY=0.5;exitDx=0;exitDy=0;exitPerimeter=0;" parent="1" source="vOsG3U2r3sjx957_ffcO-36" target="vOsG3U2r3sjx957_ffcO-4" edge="1">
          <mxGeometry width="160" relative="1" as="geometry">
            <mxPoint x="360" y="310" as="sourcePoint" />
            <mxPoint x="520" y="310" as="targetPoint" />
          </mxGeometry>
        </mxCell>
        <mxCell id="vOsG3U2r3sjx957_ffcO-42" value="Quản lí đọc giả" style="ellipse;whiteSpace=wrap;html=1;fillColor=#dae8fc;strokeColor=#6c8ebf;" parent="1" vertex="1">
          <mxGeometry x="730" y="290" width="140" height="70" as="geometry" />
        </mxCell>
        <mxCell id="vOsG3U2r3sjx957_ffcO-43" value="Tra cứu thông tin cá nhân&amp;nbsp;" style="ellipse;whiteSpace=wrap;html=1;" parent="1" vertex="1">
          <mxGeometry x="540" y="190" width="140" height="70" as="geometry" />
        </mxCell>
        <mxCell id="vOsG3U2r3sjx957_ffcO-44" value="Tra cứu số sách đã mượn của đọc giả" style="ellipse;whiteSpace=wrap;html=1;" parent="1" vertex="1">
          <mxGeometry x="520" y="300" width="140" height="70" as="geometry" />
        </mxCell>
        <mxCell id="vOsG3U2r3sjx957_ffcO-45" value="Thông báo cho đọc giả khi quá hạn" style="ellipse;whiteSpace=wrap;html=1;" parent="1" vertex="1">
          <mxGeometry x="530" y="730" width="140" height="70" as="geometry" />
        </mxCell>
        <mxCell id="vOsG3U2r3sjx957_ffcO-46" value="Quản lí sách" style="ellipse;whiteSpace=wrap;html=1;fillColor=#dae8fc;strokeColor=#6c8ebf;" parent="1" vertex="1">
          <mxGeometry x="687" y="390" width="140" height="70" as="geometry" />
        </mxCell>
        <mxCell id="vOsG3U2r3sjx957_ffcO-55" value="Theo dõi số lượng có trong kho của mỗi quyển sách" style="ellipse;whiteSpace=wrap;html=1;" parent="1" vertex="1">
          <mxGeometry x="530" y="470" width="140" height="70" as="geometry" />
        </mxCell>
        <mxCell id="vOsG3U2r3sjx957_ffcO-56" value="Quản lí tổng sách đã mượn" style="ellipse;whiteSpace=wrap;html=1;" parent="1" vertex="1">
          <mxGeometry x="680" y="540" width="140" height="70" as="geometry" />
        </mxCell>
        <mxCell id="vOsG3U2r3sjx957_ffcO-57" value="Quản lí sách đã mượn của từng loại" style="ellipse;whiteSpace=wrap;html=1;" parent="1" vertex="1">
          <mxGeometry x="500" y="550" width="140" height="70" as="geometry" />
        </mxCell>
        <mxCell id="vOsG3U2r3sjx957_ffcO-58" value="Quản lí việc mượn trả sách" style="ellipse;whiteSpace=wrap;html=1;fillColor=#dae8fc;strokeColor=#6c8ebf;" parent="1" vertex="1">
          <mxGeometry x="750" y="635" width="140" height="70" as="geometry" />
        </mxCell>
        <mxCell id="vOsG3U2r3sjx957_ffcO-59" value="Quản lí số sách đã mượn của mỗi đọc giả" style="ellipse;whiteSpace=wrap;html=1;" parent="1" vertex="1">
          <mxGeometry x="530" y="650" width="140" height="70" as="geometry" />
        </mxCell>
        <mxCell id="vOsG3U2r3sjx957_ffcO-60" value="Xác nhận các đăng kí mượn sách của đọc giả" style="ellipse;whiteSpace=wrap;html=1;" parent="1" vertex="1">
          <mxGeometry x="687" y="770" width="140" height="70" as="geometry" />
        </mxCell>
        <mxCell id="vOsG3U2r3sjx957_ffcO-62" value="" style="edgeStyle=none;html=1;endArrow=none;verticalAlign=bottom;rounded=0;exitX=1;exitY=0.5;exitDx=0;exitDy=0;entryX=0.5;entryY=0.5;entryDx=0;entryDy=0;entryPerimeter=0;" parent="1" source="vOsG3U2r3sjx957_ffcO-42" target="vOsG3U2r3sjx957_ffcO-36" edge="1">
          <mxGeometry width="160" relative="1" as="geometry">
            <mxPoint x="840" y="388.75" as="sourcePoint" />
            <mxPoint x="1020" y="370" as="targetPoint" />
          </mxGeometry>
        </mxCell>
        <mxCell id="vOsG3U2r3sjx957_ffcO-63" value="" style="edgeStyle=none;html=1;endArrow=none;verticalAlign=bottom;rounded=0;exitX=1;exitY=0.5;exitDx=0;exitDy=0;entryX=0.5;entryY=0.5;entryDx=0;entryDy=0;entryPerimeter=0;" parent="1" source="vOsG3U2r3sjx957_ffcO-46" target="vOsG3U2r3sjx957_ffcO-36" edge="1">
          <mxGeometry width="160" relative="1" as="geometry">
            <mxPoint x="490" y="260" as="sourcePoint" />
            <mxPoint x="650" y="260" as="targetPoint" />
          </mxGeometry>
        </mxCell>
        <mxCell id="vOsG3U2r3sjx957_ffcO-64" value="" style="edgeStyle=none;html=1;endArrow=none;verticalAlign=bottom;rounded=0;entryX=0.5;entryY=0.5;entryDx=0;entryDy=0;entryPerimeter=0;exitX=1;exitY=0;exitDx=0;exitDy=0;" parent="1" source="vOsG3U2r3sjx957_ffcO-58" target="vOsG3U2r3sjx957_ffcO-36" edge="1">
          <mxGeometry width="160" relative="1" as="geometry">
            <mxPoint x="490" y="640" as="sourcePoint" />
            <mxPoint x="650" y="640" as="targetPoint" />
          </mxGeometry>
        </mxCell>
        <mxCell id="vOsG3U2r3sjx957_ffcO-65" value="&amp;lt;&amp;lt;extend&amp;gt;&amp;gt;" style="edgeStyle=none;html=1;startArrow=open;endArrow=none;startSize=12;verticalAlign=bottom;dashed=1;labelBackgroundColor=none;rounded=0;exitX=0;exitY=0;exitDx=0;exitDy=0;entryX=1;entryY=0.5;entryDx=0;entryDy=0;" parent="1" source="vOsG3U2r3sjx957_ffcO-42" target="vOsG3U2r3sjx957_ffcO-43" edge="1">
          <mxGeometry width="160" relative="1" as="geometry">
            <mxPoint x="490" y="390" as="sourcePoint" />
            <mxPoint x="650" y="390" as="targetPoint" />
          </mxGeometry>
        </mxCell>
        <mxCell id="vOsG3U2r3sjx957_ffcO-67" value="&amp;lt;&amp;lt;extend&amp;gt;&amp;gt;" style="edgeStyle=none;html=1;startArrow=open;endArrow=none;startSize=12;verticalAlign=bottom;dashed=1;labelBackgroundColor=none;rounded=0;entryX=1;entryY=0.5;entryDx=0;entryDy=0;exitX=0;exitY=0.5;exitDx=0;exitDy=0;" parent="1" source="vOsG3U2r3sjx957_ffcO-42" target="vOsG3U2r3sjx957_ffcO-44" edge="1">
          <mxGeometry width="160" relative="1" as="geometry">
            <mxPoint x="708" y="360" as="sourcePoint" />
            <mxPoint x="650" y="390" as="targetPoint" />
          </mxGeometry>
        </mxCell>
        <mxCell id="vOsG3U2r3sjx957_ffcO-68" value="&amp;lt;&amp;lt;extend&amp;gt;&amp;gt;" style="edgeStyle=none;html=1;startArrow=open;endArrow=none;startSize=12;verticalAlign=bottom;dashed=1;labelBackgroundColor=none;rounded=0;exitX=0;exitY=1;exitDx=0;exitDy=0;entryX=1;entryY=0;entryDx=0;entryDy=0;" parent="1" source="vOsG3U2r3sjx957_ffcO-46" target="vOsG3U2r3sjx957_ffcO-55" edge="1">
          <mxGeometry width="160" relative="1" as="geometry">
            <mxPoint x="490" y="510" as="sourcePoint" />
            <mxPoint x="650" y="510" as="targetPoint" />
          </mxGeometry>
        </mxCell>
        <mxCell id="vOsG3U2r3sjx957_ffcO-69" value="&amp;lt;&amp;lt;extend&amp;gt;&amp;gt;" style="edgeStyle=none;html=1;startArrow=open;endArrow=none;startSize=12;verticalAlign=bottom;dashed=1;labelBackgroundColor=none;rounded=0;exitX=0.5;exitY=1;exitDx=0;exitDy=0;entryX=0.5;entryY=0;entryDx=0;entryDy=0;" parent="1" source="vOsG3U2r3sjx957_ffcO-46" target="vOsG3U2r3sjx957_ffcO-56" edge="1">
          <mxGeometry width="160" relative="1" as="geometry">
            <mxPoint x="490" y="510" as="sourcePoint" />
            <mxPoint x="650" y="510" as="targetPoint" />
          </mxGeometry>
        </mxCell>
        <mxCell id="vOsG3U2r3sjx957_ffcO-70" value="&amp;lt;&amp;lt;extend&amp;gt;&amp;gt;" style="edgeStyle=none;html=1;startArrow=open;endArrow=none;startSize=12;verticalAlign=bottom;dashed=1;labelBackgroundColor=none;rounded=0;exitX=0;exitY=0.5;exitDx=0;exitDy=0;entryX=1;entryY=0.5;entryDx=0;entryDy=0;" parent="1" source="vOsG3U2r3sjx957_ffcO-56" target="vOsG3U2r3sjx957_ffcO-57" edge="1">
          <mxGeometry width="160" relative="1" as="geometry">
            <mxPoint x="490" y="510" as="sourcePoint" />
            <mxPoint x="650" y="510" as="targetPoint" />
          </mxGeometry>
        </mxCell>
        <mxCell id="vOsG3U2r3sjx957_ffcO-71" value="&amp;lt;&amp;lt;extend&amp;gt;&amp;gt;" style="edgeStyle=none;html=1;startArrow=open;endArrow=none;startSize=12;verticalAlign=bottom;dashed=1;labelBackgroundColor=none;rounded=0;exitX=0;exitY=0.5;exitDx=0;exitDy=0;entryX=1;entryY=0.5;entryDx=0;entryDy=0;" parent="1" source="vOsG3U2r3sjx957_ffcO-58" target="vOsG3U2r3sjx957_ffcO-59" edge="1">
          <mxGeometry width="160" relative="1" as="geometry">
            <mxPoint x="490" y="640" as="sourcePoint" />
            <mxPoint x="650" y="640" as="targetPoint" />
          </mxGeometry>
        </mxCell>
        <mxCell id="vOsG3U2r3sjx957_ffcO-72" value="&amp;lt;&amp;lt;extend&amp;gt;&amp;gt;" style="edgeStyle=none;html=1;startArrow=open;endArrow=none;startSize=12;verticalAlign=bottom;dashed=1;labelBackgroundColor=none;rounded=0;exitX=0.5;exitY=1;exitDx=0;exitDy=0;entryX=0.5;entryY=0;entryDx=0;entryDy=0;" parent="1" source="vOsG3U2r3sjx957_ffcO-58" target="vOsG3U2r3sjx957_ffcO-60" edge="1">
          <mxGeometry width="160" relative="1" as="geometry">
            <mxPoint x="490" y="640" as="sourcePoint" />
            <mxPoint x="650" y="640" as="targetPoint" />
          </mxGeometry>
        </mxCell>
        <mxCell id="vOsG3U2r3sjx957_ffcO-73" value="&amp;lt;&amp;lt;extend&amp;gt;&amp;gt;" style="edgeStyle=none;html=1;startArrow=open;endArrow=none;startSize=12;verticalAlign=bottom;dashed=1;labelBackgroundColor=none;rounded=0;exitX=0;exitY=1;exitDx=0;exitDy=0;entryX=1;entryY=0;entryDx=0;entryDy=0;" parent="1" source="vOsG3U2r3sjx957_ffcO-58" target="vOsG3U2r3sjx957_ffcO-45" edge="1">
          <mxGeometry width="160" relative="1" as="geometry">
            <mxPoint x="490" y="640" as="sourcePoint" />
            <mxPoint x="650" y="640" as="targetPoint" />
          </mxGeometry>
        </mxCell>
        <mxCell id="vOsG3U2r3sjx957_ffcO-75" value="Thêm mới tài khoản cho thủ thư" style="ellipse;whiteSpace=wrap;html=1;" parent="1" vertex="1">
          <mxGeometry x="580" y="870" width="140" height="70" as="geometry" />
        </mxCell>
        <mxCell id="vOsG3U2r3sjx957_ffcO-76" value="ADMIN" style="shape=umlActor;html=1;verticalLabelPosition=bottom;verticalAlign=top;align=center;" parent="1" vertex="1">
          <mxGeometry x="990" y="940" width="30" height="60" as="geometry" />
        </mxCell>
        <mxCell id="vOsG3U2r3sjx957_ffcO-77" value="Quản lí tài khoản các user" style="ellipse;whiteSpace=wrap;html=1;fillColor=#dae8fc;strokeColor=#6c8ebf;" parent="1" vertex="1">
          <mxGeometry x="770" y="935" width="140" height="70" as="geometry" />
        </mxCell>
        <mxCell id="vOsG3U2r3sjx957_ffcO-79" value="Khóa tài khoản vi phạm nội quy mượn trả sách thư viện" style="ellipse;whiteSpace=wrap;html=1;" parent="1" vertex="1">
          <mxGeometry x="570" y="985" width="160" height="80" as="geometry" />
        </mxCell>
        <mxCell id="vOsG3U2r3sjx957_ffcO-80" value="&amp;lt;&amp;lt;extend&amp;gt;&amp;gt;" style="edgeStyle=none;html=1;startArrow=open;endArrow=none;startSize=12;verticalAlign=bottom;dashed=1;labelBackgroundColor=none;rounded=0;exitX=0;exitY=0;exitDx=0;exitDy=0;entryX=1;entryY=0.5;entryDx=0;entryDy=0;" parent="1" source="vOsG3U2r3sjx957_ffcO-77" target="vOsG3U2r3sjx957_ffcO-75" edge="1">
          <mxGeometry width="160" relative="1" as="geometry">
            <mxPoint x="490" y="1010" as="sourcePoint" />
            <mxPoint x="650" y="1010" as="targetPoint" />
          </mxGeometry>
        </mxCell>
        <mxCell id="vOsG3U2r3sjx957_ffcO-81" value="&amp;lt;&amp;lt;extend&amp;gt;&amp;gt;" style="edgeStyle=none;html=1;startArrow=open;endArrow=none;startSize=12;verticalAlign=bottom;dashed=1;labelBackgroundColor=none;rounded=0;exitX=0;exitY=1;exitDx=0;exitDy=0;entryX=1;entryY=0.5;entryDx=0;entryDy=0;" parent="1" source="vOsG3U2r3sjx957_ffcO-77" target="vOsG3U2r3sjx957_ffcO-79" edge="1">
          <mxGeometry width="160" relative="1" as="geometry">
            <mxPoint x="490" y="1010" as="sourcePoint" />
            <mxPoint x="650" y="1010" as="targetPoint" />
          </mxGeometry>
        </mxCell>
        <mxCell id="vOsG3U2r3sjx957_ffcO-82" value="Thêm/xóa sách" style="ellipse;whiteSpace=wrap;html=1;" parent="1" vertex="1">
          <mxGeometry x="790" y="470" width="140" height="70" as="geometry" />
        </mxCell>
        <mxCell id="vOsG3U2r3sjx957_ffcO-83" value="" style="edgeStyle=none;html=1;endArrow=none;verticalAlign=bottom;rounded=0;entryX=0.5;entryY=0.5;entryDx=0;entryDy=0;entryPerimeter=0;exitX=1;exitY=0.5;exitDx=0;exitDy=0;" parent="1" source="vOsG3U2r3sjx957_ffcO-77" target="vOsG3U2r3sjx957_ffcO-76" edge="1">
          <mxGeometry width="160" relative="1" as="geometry">
            <mxPoint x="490" y="890" as="sourcePoint" />
            <mxPoint x="650" y="890" as="targetPoint" />
          </mxGeometry>
        </mxCell>
        <mxCell id="2vhhkDXvmJM6GQZ7UdFI-1" value="&amp;lt;&amp;lt;extend&amp;gt;&amp;gt;" style="edgeStyle=none;html=1;startArrow=open;endArrow=none;startSize=12;verticalAlign=bottom;dashed=1;labelBackgroundColor=none;rounded=0;exitX=0;exitY=0.5;exitDx=0;exitDy=0;entryX=1;entryY=0.5;entryDx=0;entryDy=0;" edge="1" parent="1" source="vOsG3U2r3sjx957_ffcO-46" target="vOsG3U2r3sjx957_ffcO-6">
          <mxGeometry width="160" relative="1" as="geometry">
            <mxPoint x="717" y="459" as="sourcePoint" />
            <mxPoint x="660" y="491" as="targetPoint" />
          </mxGeometry>
        </mxCell>
        <mxCell id="2vhhkDXvmJM6GQZ7UdFI-2" value="&amp;lt;&amp;lt;extend&amp;gt;&amp;gt;" style="edgeStyle=none;html=1;startArrow=open;endArrow=none;startSize=12;verticalAlign=bottom;dashed=1;labelBackgroundColor=none;rounded=0;exitX=1;exitY=1;exitDx=0;exitDy=0;entryX=0.5;entryY=0;entryDx=0;entryDy=0;" edge="1" parent="1" source="vOsG3U2r3sjx957_ffcO-46" target="vOsG3U2r3sjx957_ffcO-82">
          <mxGeometry width="160" relative="1" as="geometry">
            <mxPoint x="767" y="470" as="sourcePoint" />
            <mxPoint x="760" y="550" as="targetPoint" />
          </mxGeometry>
        </mxCell>
      </root>
    </mxGraphModel>
  </diagram>
</mxfile>
